<svg width="24" height="24" viewBox="0 0 24 24" fill="none" xmlns="http://www.w3.org/2000/svg">
<g clip-path="url(#clip0_2_12)">
<path d="M12 0C5.37321 0 0 5.37321 0 12C0 18.6268 5.37321 24 12 24C18.6268 24 24 18.6268 24 12C24 5.37321 18.6268 0 12 0ZM16.942 9.47411L12.1741 16.0634C12.1544 16.0908 12.1284 16.1131 12.0984 16.1285C12.0684 16.1438 12.0351 16.1519 12.0013 16.1519C11.9676 16.1519 11.9343 16.1438 11.9043 16.1285C11.8743 16.1131 11.8483 16.0908 11.8286 16.0634L7.06071 9.47411C6.95893 9.33214 7.06071 9.13393 7.23482 9.13393H8.49107C8.76429 9.13393 9.02411 9.26518 9.18482 9.4875L12 13.3821L14.8179 9.4875C14.9786 9.26518 15.2357 9.13393 15.5116 9.13393H16.7679C16.942 9.13393 17.0438 9.33214 16.942 9.47411Z" fill="#212121"/>
</g>
<defs>
<clipPath id="clip0_2_12">
<rect width="24" height="24" fill="white"/>
</clipPath>
</defs>
</svg>
